<svg xmlns="http://www.w3.org/2000/svg" xmlns:xlink="http://www.w3.org/1999/xlink" zoomAndPan="magnify" viewBox="360 310 790 880" preserveAspectRatio="xMidYMid meet" version="1.0"><defs><g/><clipPath id="a568ce0f27"><path d="M 591.277344 338.652344 L 908.527344 338.652344 L 908.527344 811.902344 L 591.277344 811.902344 Z M 591.277344 338.652344 " clip-rule="nonzero"/></clipPath></defs><g clip-path="url(#a568ce0f27)"><path fill="#ff751f" d="M 591.277344 654.144531 L 750.484375 496.363281 L 750.484375 656 L 757.96875 664.378906 L 905.933594 811.894531 L 750.484375 811.894531 Z M 804.792969 442.210938 L 908.714844 338.578125 L 908.714844 738.136719 L 804.792969 633.609375 Z M 804.792969 442.210938 " fill-opacity="1" fill-rule="evenodd"/></g><g fill="#ffffff" fill-opacity="1"><g transform="translate(498.372677, 1019.143596)"><g><path d="M 52.078125 2.6875 C 41.328125 2.6875 32.023438 1.484375 24.171875 -0.921875 C 16.328125 -3.335938 9.507812 -6.957031 3.71875 -11.78125 L 20.671875 -37.203125 C 23.972656 -34.304688 28.140625 -31.859375 33.171875 -29.859375 C 38.203125 -27.867188 42.851562 -26.875 47.125 -26.875 C 50.707031 -26.875 53.289062 -27.351562 54.875 -28.3125 C 56.457031 -29.28125 57.25 -30.726562 57.25 -32.65625 C 57.25 -33.894531 56.695312 -35.066406 55.59375 -36.171875 C 54.488281 -37.273438 52.554688 -38.445312 49.796875 -39.6875 C 47.046875 -40.925781 43.125 -42.441406 38.03125 -44.234375 C 30.59375 -47.117188 24.703125 -50.144531 20.359375 -53.3125 C 16.015625 -56.488281 12.84375 -60.109375 10.84375 -64.171875 C 8.851562 -68.234375 7.859375 -73.085938 7.859375 -78.734375 C 7.859375 -84.796875 9.785156 -90.410156 13.640625 -95.578125 C 17.492188 -100.753906 23.070312 -104.890625 30.375 -107.984375 C 37.675781 -111.085938 46.148438 -112.640625 55.796875 -112.640625 C 72.054688 -112.640625 85.285156 -109.398438 95.484375 -102.921875 L 79.78125 -76.0625 C 77.019531 -78.125 73.707031 -79.84375 69.84375 -81.21875 C 65.988281 -82.59375 62.269531 -83.28125 58.6875 -83.28125 C 55.65625 -83.28125 53.414062 -82.9375 51.96875 -82.25 C 50.53125 -81.5625 49.8125 -80.390625 49.8125 -78.734375 C 49.8125 -77.773438 50.328125 -76.847656 51.359375 -75.953125 C 52.390625 -75.054688 54.25 -74.054688 56.9375 -72.953125 C 59.625 -71.847656 63.789062 -70.332031 69.4375 -68.40625 C 79.363281 -64.820312 86.664062 -60.515625 91.34375 -55.484375 C 96.03125 -50.460938 98.375 -43.75 98.375 -35.34375 C 98.375 -28.3125 96.476562 -21.898438 92.6875 -16.109375 C 88.90625 -10.328125 83.5 -5.75 76.46875 -2.375 C 69.4375 1 61.304688 2.6875 52.078125 2.6875 Z M 52.078125 2.6875 "/></g></g></g><g fill="#ffffff" fill-opacity="1"><g transform="translate(601.294158, 1019.143596)"><g><path d="M 11.78125 -152.109375 L 53.109375 -152.109375 L 53.109375 -63.65625 L 80.390625 -109.75 L 128.546875 -109.75 L 95.890625 -57.65625 L 134.75 0 L 85.96875 0 L 53.109375 -51.671875 L 53.109375 0 L 11.78125 0 Z M 11.78125 -152.109375 "/></g></g></g><g fill="#ffffff" fill-opacity="1"><g transform="translate(736.042776, 1019.143596)"><g><path d="M 32.453125 -117.59375 C 24.734375 -117.59375 18.875 -119.554688 14.875 -123.484375 C 10.882812 -127.410156 8.890625 -132.613281 8.890625 -139.09375 C 8.890625 -142.945312 9.785156 -146.492188 11.578125 -149.734375 C 13.367188 -152.972656 16.019531 -155.585938 19.53125 -157.578125 C 23.039062 -159.578125 27.347656 -160.578125 32.453125 -160.578125 C 37.546875 -160.578125 41.847656 -159.578125 45.359375 -157.578125 C 48.878906 -155.585938 51.535156 -152.972656 53.328125 -149.734375 C 55.117188 -146.492188 56.015625 -142.945312 56.015625 -139.09375 C 56.015625 -132.613281 53.976562 -127.410156 49.90625 -123.484375 C 45.84375 -119.554688 40.023438 -117.59375 32.453125 -117.59375 Z M 11.78125 -109.75 L 53.109375 -109.75 L 53.109375 0 L 11.78125 0 Z M 11.78125 -109.75 "/></g></g></g><g fill="#ffffff" fill-opacity="1"><g transform="translate(800.937043, 1019.143596)"><g><path d="M 53.109375 -109.75 L 53.109375 -98.578125 C 56.140625 -102.441406 60.238281 -105.75 65.40625 -108.5 C 70.570312 -111.257812 76.394531 -112.640625 82.875 -112.640625 C 90.863281 -112.640625 98.335938 -110.535156 105.296875 -106.328125 C 112.253906 -102.128906 117.898438 -95.65625 122.234375 -86.90625 C 126.578125 -78.15625 128.75 -67.304688 128.75 -54.359375 C 128.75 -41.816406 126.578125 -31.238281 122.234375 -22.625 C 117.898438 -14.019531 112.253906 -7.613281 105.296875 -3.40625 C 98.335938 0.789062 90.863281 2.890625 82.875 2.890625 C 76.257812 2.890625 70.4375 1.617188 65.40625 -0.921875 C 60.382812 -3.472656 56.285156 -6.882812 53.109375 -11.15625 L 53.109375 40.09375 L 11.78125 40.09375 L 11.78125 -109.75 Z M 68.40625 -35.953125 C 73.78125 -35.953125 78.15625 -37.570312 81.53125 -40.8125 C 84.90625 -44.050781 86.59375 -48.492188 86.59375 -54.140625 C 86.59375 -60.066406 84.972656 -64.820312 81.734375 -68.40625 C 78.492188 -71.988281 74.257812 -73.78125 69.03125 -73.78125 C 63.789062 -73.78125 59.617188 -72.195312 56.515625 -69.03125 C 53.421875 -65.863281 51.875 -61.382812 51.875 -55.59375 C 51.875 -49.53125 53.351562 -44.738281 56.3125 -41.21875 C 59.28125 -37.707031 63.3125 -35.953125 68.40625 -35.953125 Z M 68.40625 -35.953125 "/></g></g></g><g fill="#ffffff" fill-opacity="1"><g transform="translate(936.718981, 1019.143596)"><g><path d="M 32.453125 -117.59375 C 24.734375 -117.59375 18.875 -119.554688 14.875 -123.484375 C 10.882812 -127.410156 8.890625 -132.613281 8.890625 -139.09375 C 8.890625 -142.945312 9.785156 -146.492188 11.578125 -149.734375 C 13.367188 -152.972656 16.019531 -155.585938 19.53125 -157.578125 C 23.039062 -159.578125 27.347656 -160.578125 32.453125 -160.578125 C 37.546875 -160.578125 41.847656 -159.578125 45.359375 -157.578125 C 48.878906 -155.585938 51.535156 -152.972656 53.328125 -149.734375 C 55.117188 -146.492188 56.015625 -142.945312 56.015625 -139.09375 C 56.015625 -132.613281 53.976562 -127.410156 49.90625 -123.484375 C 45.84375 -119.554688 40.023438 -117.59375 32.453125 -117.59375 Z M 11.78125 -109.75 L 53.109375 -109.75 L 53.109375 0 L 11.78125 0 Z M 11.78125 -109.75 "/></g></g></g><g fill="#ff751f" fill-opacity="1"><g transform="translate(384.491777, 1126.516875)"><g><path d="M 13.046875 0.90625 C 10.453125 0.90625 8.210938 0.265625 6.328125 -1.015625 C 4.441406 -2.304688 2.832031 -4.269531 1.5 -6.90625 L 7.25 -10.34375 C 8.082031 -8.78125 8.984375 -7.609375 9.953125 -6.828125 C 10.921875 -6.046875 12.003906 -5.65625 13.203125 -5.65625 C 13.960938 -5.65625 14.660156 -5.800781 15.296875 -6.09375 C 15.929688 -6.394531 16.429688 -6.800781 16.796875 -7.3125 C 17.160156 -7.832031 17.34375 -8.394531 17.34375 -9 C 17.34375 -9.632812 17.21875 -10.203125 16.96875 -10.703125 C 16.71875 -11.203125 16.359375 -11.691406 15.890625 -12.171875 C 15.429688 -12.660156 14.734375 -13.285156 13.796875 -14.046875 C 11.066406 -16.347656 9.015625 -18.148438 7.640625 -19.453125 C 6.273438 -20.753906 5.191406 -22.078125 4.390625 -23.421875 C 3.597656 -24.773438 3.203125 -26.21875 3.203125 -27.75 C 3.203125 -29.414062 3.640625 -30.941406 4.515625 -32.328125 C 5.398438 -33.710938 6.601562 -34.800781 8.125 -35.59375 C 9.644531 -36.394531 11.285156 -36.796875 13.046875 -36.796875 C 15.148438 -36.796875 17.007812 -36.300781 18.625 -35.3125 C 20.238281 -34.332031 21.847656 -32.910156 23.453125 -31.046875 L 18.5 -26.84375 C 17.5 -27.976562 16.554688 -28.828125 15.671875 -29.390625 C 14.785156 -29.960938 13.878906 -30.25 12.953125 -30.25 C 12.046875 -30.25 11.3125 -30.015625 10.75 -29.546875 C 10.1875 -29.078125 9.90625 -28.476562 9.90625 -27.75 C 9.90625 -27.21875 10.078125 -26.703125 10.421875 -26.203125 C 10.773438 -25.703125 11.328125 -25.117188 12.078125 -24.453125 C 12.828125 -23.785156 14.050781 -22.769531 15.75 -21.40625 C 17.78125 -19.769531 19.335938 -18.414062 20.421875 -17.34375 C 21.503906 -16.28125 22.378906 -15.085938 23.046875 -13.765625 C 23.710938 -12.453125 24.046875 -10.960938 24.046875 -9.296875 C 24.046875 -7.328125 23.578125 -5.566406 22.640625 -4.015625 C 21.710938 -2.472656 20.414062 -1.265625 18.75 -0.390625 C 17.082031 0.472656 15.179688 0.90625 13.046875 0.90625 Z M 13.046875 0.90625 "/></g></g></g><g fill="#ff751f" fill-opacity="1"><g transform="translate(414.787742, 1126.516875)"><g><path d="M 43.59375 0 L 37 0 L 33.453125 -20.90625 L 33.15625 -22.75 L 32.546875 -21 L 25.5 0 L 19.5 0 L 12.546875 -20.953125 L 11.953125 -22.75 L 11.65625 -21 L 8 0 L 1.34375 0 L 7.546875 -35.90625 L 14.25 -35.90625 L 22.09375 -12.203125 L 22.546875 -10.796875 L 23 -12.203125 L 30.953125 -35.90625 L 37.546875 -35.90625 Z M 43.59375 0 "/></g></g></g><g fill="#ff751f" fill-opacity="1"><g transform="translate(464.080771, 1126.516875)"><g><path d="M 27.5 0 L 24.75 -7.40625 L 9.84375 -7.40625 L 7.09375 0 L 0 0 L 13.84375 -35.90625 L 20.75 -35.90625 L 34.59375 0 Z M 12.40625 -14.09375 L 22.25 -14.09375 L 17.296875 -27.296875 Z M 12.40625 -14.09375 "/></g></g></g><g fill="#ff751f" fill-opacity="1"><g transform="translate(502.975402, 1126.516875)"><g><path d="M 13.296875 -35.90625 C 17.128906 -35.90625 20.117188 -35.03125 22.265625 -33.28125 C 24.421875 -31.53125 25.5 -28.9375 25.5 -25.5 C 25.5 -23.164062 24.914062 -21.195312 23.75 -19.59375 C 22.582031 -18 20.863281 -16.785156 18.59375 -15.953125 L 27.09375 0 L 19.65625 0 L 11.59375 -15.203125 L 10.953125 -15.203125 L 10.953125 0 L 4.09375 0 L 4.09375 -35.90625 Z M 14.09375 -21.84375 C 15.664062 -21.84375 16.84375 -22.148438 17.625 -22.765625 C 18.40625 -23.390625 18.796875 -24.316406 18.796875 -25.546875 C 18.796875 -26.742188 18.378906 -27.648438 17.546875 -28.265625 C 16.710938 -28.890625 15.5 -29.203125 13.90625 -29.203125 L 10.953125 -29.203125 L 10.953125 -21.84375 Z M 14.09375 -21.84375 "/></g></g></g><g fill="#ff751f" fill-opacity="1"><g transform="translate(535.820972, 1126.516875)"><g><path d="M 6.953125 -29.203125 L 0.546875 -29.203125 L 0.546875 -35.90625 L 20.40625 -35.90625 L 20.40625 -29.203125 L 13.796875 -29.203125 L 13.796875 0 L 6.953125 0 Z M 6.953125 -29.203125 "/></g></g></g><g fill="#ff751f" fill-opacity="1"><g transform="translate(561.117712, 1126.516875)"><g/></g></g><g fill="#ff751f" fill-opacity="1"><g transform="translate(579.415543, 1126.516875)"><g><path d="M 30.046875 0 L 22.296875 0 L 10.953125 -16.09375 L 10.953125 0 L 4.09375 0 L 4.09375 -35.90625 L 10.953125 -35.90625 L 10.953125 -21.90625 L 21.296875 -35.90625 L 29 -35.90625 L 16.5 -19.09375 Z M 30.046875 0 "/></g></g></g><g fill="#ff751f" fill-opacity="1"><g transform="translate(613.760861, 1126.516875)"><g><path d="M 4.09375 -35.90625 L 10.953125 -35.90625 L 10.953125 0 L 4.09375 0 Z M 4.09375 -35.90625 "/></g></g></g><g fill="#ff751f" fill-opacity="1"><g transform="translate(633.108539, 1126.516875)"><g/></g></g><g fill="#ff751f" fill-opacity="1"><g transform="translate(651.406359, 1126.516875)"><g><path d="M 13.09375 -35.90625 C 17.0625 -35.90625 20.117188 -35.050781 22.265625 -33.34375 C 24.421875 -31.644531 25.5 -29.03125 25.5 -25.5 C 25.5 -23.332031 24.988281 -21.472656 23.96875 -19.921875 C 22.957031 -18.367188 21.535156 -17.191406 19.703125 -16.390625 C 17.867188 -15.597656 15.769531 -15.203125 13.40625 -15.203125 L 10.953125 -15.203125 L 10.953125 0 L 4.09375 0 L 4.09375 -35.90625 Z M 14.15625 -21.84375 C 17.25 -21.84375 18.796875 -23.0625 18.796875 -25.5 C 18.796875 -26.695312 18.378906 -27.613281 17.546875 -28.25 C 16.710938 -28.882812 15.476562 -29.203125 13.84375 -29.203125 L 10.953125 -29.203125 L 10.953125 -21.84375 Z M 14.15625 -21.84375 "/></g></g></g><g fill="#ff751f" fill-opacity="1"><g transform="translate(682.702171, 1126.516875)"><g><path d="M 4.09375 -35.90625 L 10.953125 -35.90625 L 10.953125 0 L 4.09375 0 Z M 4.09375 -35.90625 "/></g></g></g><g fill="#ff751f" fill-opacity="1"><g transform="translate(702.049826, 1126.516875)"><g><path d="M 21.34375 0.90625 C 17.644531 0.90625 14.351562 0.0976562 11.46875 -1.515625 C 8.59375 -3.140625 6.351562 -5.382812 4.75 -8.25 C 3.144531 -11.113281 2.34375 -14.363281 2.34375 -18 C 2.34375 -21.664062 3.207031 -24.929688 4.9375 -27.796875 C 6.675781 -30.660156 9.003906 -32.875 11.921875 -34.4375 C 14.835938 -36.007812 18.015625 -36.796875 21.453125 -36.796875 C 24.378906 -36.796875 27.203125 -36.171875 29.921875 -34.921875 C 32.640625 -33.671875 34.96875 -31.894531 36.90625 -29.59375 L 32.09375 -25 C 30.46875 -26.726562 28.769531 -28.035156 27 -28.921875 C 25.226562 -29.804688 23.328125 -30.25 21.296875 -30.25 C 19.066406 -30.25 17.015625 -29.710938 15.140625 -28.640625 C 13.273438 -27.578125 11.789062 -26.113281 10.6875 -24.25 C 9.59375 -22.382812 9.046875 -20.300781 9.046875 -18 C 9.046875 -15.5625 9.578125 -13.410156 10.640625 -11.546875 C 11.710938 -9.679688 13.191406 -8.234375 15.078125 -7.203125 C 16.960938 -6.171875 19.085938 -5.65625 21.453125 -5.65625 C 23.585938 -5.65625 25.476562 -6.070312 27.125 -6.90625 C 28.769531 -7.738281 30.492188 -9.050781 32.296875 -10.84375 L 36.953125 -6 C 35.285156 -4.363281 33.691406 -3.050781 32.171875 -2.0625 C 30.660156 -1.082031 29.03125 -0.34375 27.28125 0.15625 C 25.53125 0.65625 23.550781 0.90625 21.34375 0.90625 Z M 21.34375 0.90625 "/></g></g></g><g fill="#ff751f" fill-opacity="1"><g transform="translate(745.343783, 1126.516875)"><g><path d="M 6.953125 -29.203125 L 0.546875 -29.203125 L 0.546875 -35.90625 L 20.40625 -35.90625 L 20.40625 -29.203125 L 13.796875 -29.203125 L 13.796875 0 L 6.953125 0 Z M 6.953125 -29.203125 "/></g></g></g><g fill="#ff751f" fill-opacity="1"><g transform="translate(770.640533, 1126.516875)"><g><path d="M 16.046875 0.84375 C 13.378906 0.84375 11.132812 0.300781 9.3125 -0.78125 C 7.5 -1.863281 6.132812 -3.394531 5.21875 -5.375 C 4.300781 -7.351562 3.84375 -9.695312 3.84375 -12.40625 L 3.84375 -35.90625 L 10.703125 -35.90625 L 10.703125 -11.59375 C 10.703125 -9.664062 11.148438 -8.203125 12.046875 -7.203125 C 12.953125 -6.203125 14.238281 -5.703125 15.90625 -5.703125 C 17.300781 -5.703125 18.398438 -5.972656 19.203125 -6.515625 C 20.003906 -7.066406 20.550781 -7.832031 20.84375 -8.8125 C 21.144531 -9.800781 21.296875 -11.046875 21.296875 -12.546875 L 21.296875 -35.90625 L 28.15625 -35.90625 L 28.15625 -11.796875 C 28.15625 -9.265625 27.671875 -7.039062 26.703125 -5.125 C 25.734375 -3.207031 24.335938 -1.734375 22.515625 -0.703125 C 20.703125 0.328125 18.546875 0.84375 16.046875 0.84375 Z M 16.046875 0.84375 "/></g></g></g><g fill="#ff751f" fill-opacity="1"><g transform="translate(806.935559, 1126.516875)"><g><path d="M 13.296875 -35.90625 C 17.128906 -35.90625 20.117188 -35.03125 22.265625 -33.28125 C 24.421875 -31.53125 25.5 -28.9375 25.5 -25.5 C 25.5 -23.164062 24.914062 -21.195312 23.75 -19.59375 C 22.582031 -18 20.863281 -16.785156 18.59375 -15.953125 L 27.09375 0 L 19.65625 0 L 11.59375 -15.203125 L 10.953125 -15.203125 L 10.953125 0 L 4.09375 0 L 4.09375 -35.90625 Z M 14.09375 -21.84375 C 15.664062 -21.84375 16.84375 -22.148438 17.625 -22.765625 C 18.40625 -23.390625 18.796875 -24.316406 18.796875 -25.546875 C 18.796875 -26.742188 18.378906 -27.648438 17.546875 -28.265625 C 16.710938 -28.890625 15.5 -29.203125 13.90625 -29.203125 L 10.953125 -29.203125 L 10.953125 -21.84375 Z M 14.09375 -21.84375 "/></g></g></g><g fill="#ff751f" fill-opacity="1"><g transform="translate(839.781152, 1126.516875)"><g><path d="M 4.09375 -35.90625 L 23.703125 -35.90625 L 23.703125 -29.25 L 10.953125 -29.25 L 10.953125 -22.703125 L 23.703125 -22.703125 L 23.703125 -16.203125 L 10.953125 -16.203125 L 10.953125 -6.703125 L 23.703125 -6.703125 L 23.703125 0 L 4.09375 0 Z M 4.09375 -35.90625 "/></g></g></g><g fill="#ff751f" fill-opacity="1"><g transform="translate(870.027106, 1126.516875)"><g/></g></g><g fill="#ff751f" fill-opacity="1"><g transform="translate(888.324926, 1126.516875)"><g><path d="M 4.09375 -35.90625 L 10.953125 -35.90625 L 10.953125 0 L 4.09375 0 Z M 4.09375 -35.90625 "/></g></g></g><g fill="#ff751f" fill-opacity="1"><g transform="translate(907.672581, 1126.516875)"><g><path d="M 26.046875 -35.90625 L 32.90625 -35.90625 L 32.90625 0 L 26.296875 0 L 10.953125 -23.5 L 10.953125 0 L 4.09375 0 L 4.09375 -35.90625 L 10.65625 -35.90625 L 26.046875 -12.34375 Z M 26.046875 -35.90625 "/></g></g></g><g fill="#ff751f" fill-opacity="1"><g transform="translate(948.966889, 1126.516875)"><g><path d="M 12.75 -35.90625 C 19.28125 -35.90625 24.21875 -34.40625 27.5625 -31.40625 C 30.914062 -28.40625 32.59375 -23.9375 32.59375 -18 C 32.59375 -11.695312 30.914062 -7.117188 27.5625 -4.265625 C 24.21875 -1.421875 19.3125 0 12.84375 0 L 4.09375 0 L 4.09375 -35.90625 Z M 14.046875 -6.703125 C 17.816406 -6.703125 20.703125 -7.632812 22.703125 -9.5 C 24.703125 -11.363281 25.703125 -14.25 25.703125 -18.15625 C 25.703125 -20.519531 25.203125 -22.523438 24.203125 -24.171875 C 23.203125 -25.828125 21.765625 -27.078125 19.890625 -27.921875 C 18.023438 -28.773438 15.8125 -29.203125 13.25 -29.203125 L 10.953125 -29.203125 L 10.953125 -6.703125 Z M 14.046875 -6.703125 "/></g></g></g><g fill="#ff751f" fill-opacity="1"><g transform="translate(988.161434, 1126.516875)"><g><path d="M 4.09375 -35.90625 L 23.703125 -35.90625 L 23.703125 -29.25 L 10.953125 -29.25 L 10.953125 -22.703125 L 23.703125 -22.703125 L 23.703125 -16.203125 L 10.953125 -16.203125 L 10.953125 -6.703125 L 23.703125 -6.703125 L 23.703125 0 L 4.09375 0 Z M 4.09375 -35.90625 "/></g></g></g><g fill="#ff751f" fill-opacity="1"><g transform="translate(1018.407434, 1126.516875)"><g><path d="M 13.15625 -18.546875 L 1.75 -35.90625 L 9.453125 -35.90625 L 17 -24.40625 L 24.546875 -35.90625 L 32.25 -35.90625 L 20.84375 -18.546875 L 32.953125 0 L 25.25 0 L 17 -12.65625 L 8.75 0 L 1 0 Z M 13.15625 -18.546875 "/></g></g></g><g fill="#ff751f" fill-opacity="1"><g transform="translate(1056.702154, 1126.516875)"><g><path d="M 4.09375 -35.90625 L 23.703125 -35.90625 L 23.703125 -29.25 L 10.953125 -29.25 L 10.953125 -22.703125 L 23.703125 -22.703125 L 23.703125 -16.203125 L 10.953125 -16.203125 L 10.953125 -6.703125 L 23.703125 -6.703125 L 23.703125 0 L 4.09375 0 Z M 4.09375 -35.90625 "/></g></g></g><g fill="#ff751f" fill-opacity="1"><g transform="translate(1086.948154, 1126.516875)"><g><path d="M 13.296875 -35.90625 C 17.128906 -35.90625 20.117188 -35.03125 22.265625 -33.28125 C 24.421875 -31.53125 25.5 -28.9375 25.5 -25.5 C 25.5 -23.164062 24.914062 -21.195312 23.75 -19.59375 C 22.582031 -18 20.863281 -16.785156 18.59375 -15.953125 L 27.09375 0 L 19.65625 0 L 11.59375 -15.203125 L 10.953125 -15.203125 L 10.953125 0 L 4.09375 0 L 4.09375 -35.90625 Z M 14.09375 -21.84375 C 15.664062 -21.84375 16.84375 -22.148438 17.625 -22.765625 C 18.40625 -23.390625 18.796875 -24.316406 18.796875 -25.546875 C 18.796875 -26.742188 18.378906 -27.648438 17.546875 -28.265625 C 16.710938 -28.890625 15.5 -29.203125 13.90625 -29.203125 L 10.953125 -29.203125 L 10.953125 -21.84375 Z M 14.09375 -21.84375 "/></g></g></g></svg>